<svg version="1" xmlns="http://www.w3.org/2000/svg" width="1272" height="1272" viewBox="0 0 954.000000 954.000000"><path d="M452.7 99.6c-.1.2-3.9.6-8.2.9-4.4.3-9.1.8-10.5 1-1.4.2-5.2.7-8.5 1.1-3.3.3-6.9.8-8 1.1-1.1.2-3.3.6-4.8.8-1.5.2-4.6.7-6.8 1-2.3.4-5.2 1-6.5 1.5-1.3.5-2.4.8-2.4.6 0-.2-4.2.7-9.2 2-5.1 1.4-10.4 2.7-11.8 3-3.4.7-27 8.3-29.5 9.4-1.1.6-4.9 2.1-8.5 3.4-15.2 5.6-43.2 19.5-56.7 28.2-2.9 1.9-5.7 3.4-6.2 3.4s-1.1.3-1.3.7c-.1.5-5 3.9-10.8 7.8-5.7 3.8-11.1 7.7-12 8.5-.8.8-3.1 2.6-5 4-12.5 8.8-39 33.8-53.7 50.5-3.4 3.9-9.8 11.8-14.3 17.5-4.4 5.8-8.4 11-8.8 11.5-2.8 3.4-13.2 19.6-13.2 20.5 0 .5-.4 1-1 1-.5 0-1 .7-1 1.5s-.4 1.5-1 1.5c-.5 0-1 .5-1 1.1 0 .6-1.5 3.7-3.4 6.8-3.3 5.4-17.6 33.4-17.6 34.4 0 .2-1.2 3.1-2.7 6.3-1.5 3.3-2.7 6.1-2.8 6.4-.1.3-.5 1.8-1 3.5-.4 1.6-1.1 3.4-1.5 4-3.1 4.1-16.3 51.9-17.6 63.5-.2 1.9-.8 5.5-1.4 8-.8 4-1.3 7-2.6 18.5-1.5 12.8-1.9 22.3-1.8 44.5.1 22.7.4 29.5 1.8 40.5.3 1.6.7 5.7 1.1 9 .4 3.3.9 6.9 1.1 8 .3 1.1.7 3.3.9 5 .4 2.6 1 5.9 3.1 16.3.8 4.2 7.4 29.7 8.1 31.2.3.8.7 1.7.8 2 3.6 14.5 20.9 54.3 30.6 70.5 1.6 2.7 3.3 5.9 3.8 7 1 2.2 21.9 33.7 23 34.5.3.3 2 2.3 3.6 4.5 10.8 14.5 38.5 43.9 50.9 54 2.7 2.2 5.9 4.9 7 6 1.2 1.1 4.1 3.6 6.6 5.5s5 3.9 5.7 4.5c.6.5 3.7 2.8 6.8 5 3.1 2.2 6.6 4.8 7.7 5.8 1.2.9 2.5 1.7 2.9 1.7.4 0 1.4.6 2.1 1.2 6.3 6 44.7 26.7 63.7 34.4 4.7 1.9 9.5 3.9 10.6 4.4 5.6 2.6 31.5 10.9 40.5 13 17.4 4.2 33.9 7.3 44.5 8.6 3.3.3 6.7.8 7.6.9 14.4 2.6 69 2.6 86.4 0 1.7-.3 5.3-.7 8-1 5.6-.6 10.2-1.4 12.5-2 .8-.2 3.5-.7 6-1 2.5-.3 6.3-1.1 8.5-1.7 4.1-1 6-1.4 10.7-2.3 1.5-.3 3.8-.9 5.2-1.5 1.5-.5 2.6-.7 2.6-.5 0 .3 1.6-.1 3.5-.9s3.5-1.3 3.5-1.1c0 .7 32.4-10.5 33.5-11.6.5-.5 1.6-.9 2.5-.9.9 0 4-1.1 6.8-2.5 2.9-1.4 5.4-2.5 5.8-2.5.9 0 27.6-13.5 35.4-18 7.3-4.2 33-20.7 34-21.9.3-.3 4.3-3.5 9-7.1 4.7-3.5 9-6.9 9.6-7.5.6-.5 3.8-3.3 7-6 7.4-6.3 31.3-30.1 38-38 6.2-7.3 16.1-19.7 19.4-24.5 1.3-1.9 2.7-3.7 3-4 .3-.3 2.9-4.1 5.8-8.5s5.6-8.5 6-9c.8-.9 5.8-9.4 10.5-17.5 3.3-5.7 12.7-24.8 12.7-25.7 0-.5.6-1.5 1.3-2.1.6-.7 1.2-1.6 1.3-2 0-.4.5-1.8 1.1-3.2 5.8-13.5 13-33.2 13.9-37.9.3-1.4.8-2.9 1.2-3.5.3-.6.7-1.6.8-2.1.1-.6 1.1-4.6 2.4-8.9 1.2-4.3 2.4-9.1 2.6-10.5.3-1.4.7-3.4 1-4.3.3-1 .7-2.8 1-4 .2-1.3.6-3.4 1-4.8.3-1.4.7-3.9 1-5.5.3-1.7.9-5.5 1.4-8.5.6-3 1.2-7.8 1.5-10.5.4-2.8.8-6.1 1-7.5 2.7-17.4 2.7-69.9.1-86-.3-1.4-.7-4.8-1.1-7.5-.3-2.8-1-7.7-1.6-11-.6-3.3-1.2-6.9-1.4-8-1.2-7.9-5.8-27.1-9.5-39.5-.8-2.5-1.4-4.7-1.5-5-.7-3.5-6.9-20.1-7.6-20.6-.5-.3-.7-1-.3-1.5.3-.5.2-1.5-.3-2.2-.6-.7-1.6-2.8-2.3-4.7-1.2-3.1-5.5-12.6-10.8-24-7.4-16-30.4-52.7-38.4-61.5-1.6-1.7-2.8-3.3-2.8-3.6 0-.3-.9-1.7-2.1-3-1.1-1.3-3.3-3.9-4.7-5.8-8.1-10.2-34.9-37.6-43.7-44.6-2.7-2.2-5.4-4.5-6-5.1-.5-.6-3.2-2.8-6-5-5.1-4-6.2-4.9-9-7.2-2.5-2.2-32.8-22.3-35-23.3-1.1-.5-4-2.1-6.5-3.5-2.5-1.5-9.9-5.3-16.5-8.6-6.6-3.2-12.8-6.3-13.7-6.9-1-.5-2.4-.9-3.2-.9-.8 0-1.6-.4-1.8-.9-.5-1.5-40-15.6-48.9-17.5-1.3-.3-4.2-1-6.4-1.6-2.2-.6-5.1-1.3-6.5-1.6-1.4-.3-4.3-1-6.5-1.6-2.2-.5-5.1-1.2-6.5-1.4-1.4-.3-5-.9-8-1.5s-6.6-1.2-8-1.4c-1.4-.1-5-.6-8-1-9-1.2-12.3-1.6-15.5-1.8-1.6-.1-3.5-.6-4.2-1-.6-.4-1.4-.3-1.7.2-.3.4-2.4.5-4.6.1-3.7-.7-48.6-1-49.3-.4zm55.3 14.7c4.1.4 9.3.9 11.5 1.2 2.2.4 5.4.8 7 1 2.7.3 15.8 2.5 24 4.1 5.1.9 25.8 6.1 31.6 7.9 7.4 2.3 14 4.6 16.4 5.5 1.1.5 3.8 1.5 6 2.2 2.2.7 4.3 1.7 4.7 2.3.4.5.8.6.8.1 0-.4 1.1-.1 2.5.8s2.5 1.4 2.5 1.1c0-.4 5.5 2 19.5 8.5 26.5 12.5 59.5 34.3 83.4 55.5 5.5 4.8 27.2 26.6 31.1 31.1 1.9 2.2 5.5 6.4 7.9 9.2 8 9.5 19 24.6 18.1 25.2-1.6 1-596 .5-596-.5.1-1.4 10.2-15.5 11.2-15.5.4 0 .8-.5.8-1.1 0-1 4.7-6.9 14-17.4 6.1-6.9 28.3-28.8 33.9-33.5 3-2.5 5.9-5 6.5-5.6 2.4-2.3 27.2-20.7 29.4-21.7 1.2-.6 2.2-1.4 2.2-1.9 0-.4.5-.8 1.1-.8.6 0 2.9-1.3 5.2-2.9 10.6-7.2 50.9-28.1 54.2-28.1.3 0 2.5-.8 4.8-1.9 3.9-1.7 17.9-7 20.2-7.5.6-.2 1.7-.5 2.5-.9 6.4-2.3 31.7-9 38.5-10.1 1.1-.2 7.4-1.3 14.1-2.5 13.7-2.4 19-3 28.8-3.6 3.7-.2 7-.6 7.2-.8.6-.6 45.6-.1 54.4.6zm277.7 171c2.6 1.6 25.3 44.6 25.3 47.9 0 .8.4 1.8.8 2.4.5.5 1.7 2.9 2.6 5.4 1 2.5 2.4 5.8 3.1 7.5 2.4 5.3 7.7 22.6 7.2 23.1-.9.9-65.7 1-65.7.1 0-.5-.5-.5-1.1-.1-.7.4-8.4.7-17.3.6-15.5 0-18.8.3-16.9 1.7.4.3 1.9 2.8 3.3 5.6 1.4 2.7 2.9 5.4 3.5 6 .6.6 18.6 1 49.9 1h49l.8 3c1.1 3.9 1.3 5.1 3.7 17 2.3 11.8 2.7 14.2 3.6 21.5.4 3 .9 6.6 1.1 8 .8 5.3 1.6 18.9 1.8 28l.1 9.5-30 .1c-25.3.2-30.6.4-33.7 1.8-2.1.9-3.8 1.9-3.8 2.2 0 .3.5.2 1-.1.6-.3 1-.2 1 .2 0 .5-2 2.6-4.5 4.7-2.5 2.2-4.5 4.2-4.5 4.7 0 .4 13.4.8 29.8.8h37.3l7.7.1-.4 6.7c-.5 9.9-1.2 18.2-1.9 23.3-.3 2.5-.8 6.3-1 8.5-.8 6.7-3.1 19.7-5 28.2-.3 1.3-.7 3.3-1 4.5-.3 1.3-.8 3.4-1.1 4.8-.8 3.7-1.2 5.5-1.4 5.7-.2.2-.3.6-.4 1-.1.5-.5 1.7-.9 2.8-.7 2-1.5 2-159.2 1.9-87.2 0-158.5.2-158.5.5-.1 1.7 6.7 13 8 13.3.8.2 69.8.4 153.2.3H823l-.6 2c-.3 1.1-.9 2.9-1.4 4-2.1 5.1-5.4 15.1-5.2 15.7.1.5-.2.8-.8.8-.5 0-1 .6-1 1.4 0 2.8-13.8 31.8-20.2 42.5-2.1 3.4-3.8 6.5-3.8 6.7 0 .2-2 3.5-4.5 7.4l-4.5 7H499.5l-7.5 7-7.5 7H771.2l-3.8 5.2c-2.1 2.9-4.4 5.7-5 6.3-.6.5-1.7 1.9-2.5 3.1C757 710 747 721 735 733c-14 14.1-21.6 20.9-32 29-2.5 1.9-4.7 3.7-5 4-.3.4-3.6 2.8-7.5 5.5-3.8 2.7-7.1 5.3-7.3 5.7-.2.5-.8.8-1.3.8-.9 0-6.5 3.6-7.9 5-.3.3-1.6 1.1-3 1.9-1.4.8-7.2 4.2-13 7.6-9.3 5.4-36.9 19.4-39.5 20-.5.1-2.3.7-4 1.4-1.6.6-5 1.9-7.5 2.8-2.5.9-5 2-5.5 2.4-.6.4-2.2 1-3.5 1.2-1.4.3-3.8 1-5.5 1.7-1.6.6-3.7 1.3-4.5 1.6-.8.2-6.8 1.9-13.3 3.8-6.4 1.9-13.2 3.7-15 4-1.7.3-4.7 1-6.5 1.5-1.8.5-3.5 1-3.7 1-.6-.1-7.9 1.1-11 1.7-1.1.3-3.6.7-5.5.9-1.9.3-6.4 1-10 1.6-3.6.5-10 1.1-14.2 1.3-4.2.2-8.1.6-8.5.9-1.1.6-47.2.1-55.5-.7-12.7-1.1-31.2-4-45.3-7.1-1.1-.2-3.9-.7-6.2-1.1-2.4-.4-4.3-.9-4.3-1.3 0-.3-1.1-.7-2.4-.7-2.4-.2-23.2-6.4-29.6-8.9-1.9-.7-6.2-2.3-9.5-3.5-15.9-5.9-38.4-16.5-51.6-24.6-3.1-1.9-6.2-3.4-6.8-3.4-.6 0-1.1-.5-1.1-1 0-.6-.7-1-1.5-1s-1.5-.5-1.5-1c0-.6-.4-1-1-1-2.8 0-36.5-24.9-46.2-34.2-1-1-2.1-1.8-2.4-1.8-.9 0-29.5-29.1-33.4-33.9-1.9-2.4-4-4.9-4.6-5.5-.5-.6-4-4.9-7.7-9.6l-6.7-8.5 110.6-.3 110.5-.2-3.3-4.6c-1.8-2.6-4.3-5.7-5.5-7l-2.2-2.4H283.5c-86.4 0-109.9-.3-110.9-1.3-1.5-1.6-9.6-14.5-9.6-15.3 0-.4-.6-1.5-1.4-2.3-2.3-2.7-14-26.1-19.3-38.6-4-9.4-11.3-28.7-11.3-29.9 0-.1 61.8-.1 137.3-.1h137.2l6.2-6.5c3.4-3.6 6.3-6.8 6.3-7.1 0-.3-65.5-.5-145.5-.5s-145.7-.2-145.9-.5c-1.1-1.1-7.8-32-9.2-42.4-.3-2.2-.8-5.6-1-7.5-1.1-7.9-2.4-20.7-2.8-28.7-.3-4.2 0-7.5.5-7.9.6-.3 29.6-.6 64.5-.6 48.1 0 63.3-.2 62.7-1.1-.9-1.6-6.3-8.6-8.5-11.1-1.7-1.9-3.5-1.9-60.5-2l-58.8-.1v-10c0-5.5.1-10.4.3-10.8.3-.5.6-4.1.8-7.9.2-3.9.6-8.7.9-10.7.7-3.7 1.1-6.6 1.9-13.6.3-2.2.8-5.1 1.1-6.5.3-1.4.8-4.1 1.1-6 .3-1.9 1.4-6.8 2.4-10.9 1-4.1 1.7-7.8 1.4-8.2-1.3-2.2 6.9-2.6 52.4-2.6h49.3l5.9-6.4c3.3-3.5 6-6.6 6-7 0-.4-24.1-.7-53.6-.7-29.4 0-53.8-.3-54.1-.6-1.3-1.3 15.7-46.2 18.1-47.8.6-.4.8-.8.4-.8-1.5 0 17.2-34.6 20-37 1.6-1.3 37.4-1.5 309.3-1.4 169.1 0 308 .3 308.6.7z"/><path d="M305.6 320.2c-.3 1.8-.8 5.1-1.1 7.3-.7 4.2-1.1 6.6-1.9 10.1-.4 2.1-1.2 6.5-2.2 12.9-.3 1.6-.7 3.9-.8 5-1.3 7.2-1.8 10-2.2 11.9-.2 1.1-.7 4.1-1 6.6-.3 2.5-.8 4.7-.9 5-.2.3-.6 2.3-.9 4.5l-.6 4 11.8 4.4c6.4 2.4 13.1 5 14.7 5.6 2.9 1.2 6.4 2.6 7.5 3 .3.1 1.9.7 3.5 1.4 1.7.7 8.2 3.2 14.5 5.6 6.3 2.4 12.4 4.7 13.4 5.1 1.9.7 1.9.6-.1-2.7-1.2-1.9-3.2-5.4-4.5-7.9-1.4-2.5-4.7-8.6-7.5-13.5-2.8-5-5.9-10.6-6.9-12.5-1.1-1.9-2.2-3.7-2.6-3.8-.5-.2-.8-.9-.8-1.6 0-.8-.9-2.5-2.1-4-1.1-1.4-1.7-2.6-1.3-2.6.4 0 0-.8-.8-1.8-.8-.9-3.2-4.9-5.3-8.7-6.9-12.7-9.8-17.9-13.2-23.5-1.8-3-3.3-6.1-3.3-6.8 0-.6-.4-1.2-.9-1.2s-1.2-1.1-1.5-2.5c-.9-3.5-2.3-3.1-3 .7zM287.9 326.1c-4.1 4.4-8.7 9.6-10.4 11.3-1.6 1.8-6.1 6.8-10 11.1-3.8 4.2-8.6 9.4-10.5 11.5-1.9 2.1-7.1 7.7-11.5 12.5-4.4 4.9-9.1 10-10.5 11.5-1.4 1.5-4.1 4.5-6 6.6-1.9 2.2-7 7.7-11.2 12.3-4.3 4.7-7.8 8.8-7.8 9.1 0 .4 4.4-.9 9.8-2.7 5.3-1.9 10.2-3.6 10.7-3.7.6-.2 1.7-.6 2.5-.9 2.1-.8 22.2-7.7 24-8.2.8-.2 6.7-2.3 13-4.5 6.3-2.3 12.1-4.2 12.7-4.2.7-.1 1.5-.8 1.7-1.7.5-1.7 2.3-10.9 3-15.1 2.7-17.2 5.9-35.8 6.4-37 .2-.8.7-3.3.9-5.5.2-2.2.8-5.5 1.3-7.3.4-1.7.5-3.2 0-3.2-.4 0-4.1 3.6-8.1 8.1zM712.6 369.7c-.3 1-.8 3.6-1.1 5.8-.3 2.2-.8 5.1-1.1 6.5-1.1 5.8-1.3 6.9-1.9 10.6-1.2 7.8-1.6 10-2.5 14.9-.5 2.7-1.2 6.6-1.5 8.5-.3 1.9-1 6-1.6 9-2.2 11.2-2.2 13.7-.2 14.3 2.3.6 16.8 6.2 43.2 16.6 11.3 4.4 20.6 7.9 20.8 7.7.4-.4-2.3-5.5-8.3-15.9-1.9-3.2-3.4-5.9-3.4-6.1 0-.2-3.8-7-8.5-15.1-4.7-8.2-8.5-15.4-8.5-16.2 0-.7-.4-1.3-.8-1.3-.5 0-2.2-2.7-3.8-6-1.6-3.3-3.2-6-3.6-6-.5 0-.8-.4-.8-.9s-2.7-5.6-6-11.4c-3.3-5.7-6-10.9-6-11.6 0-.6-.4-1.1-1-1.1-.5 0-1-.6-1-1.4 0-2.2-1.8-2.9-2.4-.9zM700.3 370.4c-.4.8-4.6 5.5-9.3 10.6-11.5 12.4-14.5 15.6-21.6 23.6-3.4 3.8-7.7 8.5-9.5 10.5-1.9 1.9-7 7.5-11.4 12.4-4.4 4.8-9.6 10.5-11.5 12.5-1.9 2.1-6.9 7.5-11 12.1-4.1 4.5-8.1 8.8-8.8 9.6-2.2 2.2.8 1.6 11.3-2.2 5.2-1.9 9.6-3.4 9.8-3.4.1 0 .9-.2 1.7-.5.8-.3 3.5-1.2 6-2s8.3-2.8 13-4.6c4.7-1.7 8.5-3 8.5-3 0 .1.1.1 10.5-3.6 4.1-1.4 8.5-2.8 9.8-3.1 2.8-.7 3.8-2.5 4.6-8.8.4-2.7 1.4-8.3 2.2-12.5.8-4.1 1.7-9.1 1.9-11 .3-1.9 1-6 1.6-9 1.8-9.3 2-10.5 2-12 .1-.8.5-3.4 1-5.6 1.4-7 1.8-11.4.9-11.4-.5 0-1.3.6-1.7 1.4zM373.8 371.6c-.4.4-7 .7-14.7.6h-14l3 5.7c1.6 3.1 3.4 6.3 4 7.1.9 1.3 20.1 1.5 163.5 1.4l162.6-.1 4.7-5c2.5-2.7 5.4-5.9 6.4-7.1l1.9-2.1-14.1.2c-7.8.1-14.1-.1-14.1-.5s-.7-.5-1.5-.2c-2.4 1-286.5 1-286.8.1-.1-.5-.6-.5-.9-.1zM278.6 397.7c-.4.5-1.1.8-1.4.9-.4 0-1.4.3-2.2.7-1.4.5-8.8 2.9-10 3.2-.3.1-1.2.4-2 .8-.8.3-6.9 2.4-13.5 4.7-6.6 2.2-14.7 5.1-18 6.3-3.3 1.2-6.1 2.1-6.2 2-.1-.1-2.6.8-5.5 1.9-2.9 1.1-7 2.4-9 3-4.2 1.2-5 3.2-1.5 4.3l2.7.9c.3.2 1.6.7 3 1.3 1.4.6 10.2 4.8 19.5 9.3 9.4 4.5 17.5 8.3 18 8.4.6.1 4.7 2.1 9.2 4.4 9.3 4.7 11.2 5.1 11.4 2.2.1-1.1.2-2.3.3-2.8.1-.4.5-2.9 1-5.5.4-2.7.9-5.7 1.2-6.8.9-4.3 1.2-5.6 1.8-10.2.4-2.7.9-5.9 1.2-7 .2-1.2.7-3.8 1-5.7.3-1.9 1.1-6.5 1.8-10.3 1.2-6.1 1.1-6.7-.4-6.7-.9 0-2 .3-2.4.7zM291.9 399.5c-.2 3.2-.6 6.4-.9 6.7-.1.2-.3 1.2-.5 2.3-.2 1.8-.7 4.3-2.1 12.5-.2 1.4-.6 3.4-.8 4.5-.7 3.5-2 11-2.1 12 0 .5-.7 4.3-1.4 8.3-.7 4-1.1 7.5-.9 7.8.5.4 5.2-1.3 11.8-4.3 1.9-.9 4.1-1.6 4.8-1.6.6 0 1.2-.4 1.2-.8s1.2-1 2.8-1.4c1.5-.3 4.1-1.3 5.7-2 1.7-.8 8.6-3.7 15.5-6.5 6.9-2.9 14.1-5.9 16-6.7 4.5-2 6.4-2.7 12.8-5.4 5.7-2.3 6.4-3.4 3-4.2-1.3-.3-4.5-1.4-7.3-2.5-2.7-1.1-8.6-3.3-13-5-4.4-1.7-12.7-4.9-18.5-7.2-16.3-6.4-23.4-9-24.7-9-.7 0-1.4 1.1-1.4 2.5zM210 436.4c0 .2.6 1.1 1.3 1.8.6.7 4.6 5.8 8.7 11.3 13.9 18.5 38 50 40.5 52.9 1.3 1.7 2.7 2.8 2.9 2.5.2-.2.7-2.2 1-4.4.4-2.3.9-5.2 1.1-6.5 1.1-5.6 4.5-25.8 4.5-26.9 0-1-34.3-19-38-20-.8-.2-1.7-.6-2-1-.3-.3-4.5-2.6-9.5-5-4.9-2.5-9.3-4.6-9.7-4.8-.5-.2-.8-.2-.8.1zM340.6 440.5c-4.5 2.2-7.7 3.3-9.3 3.3-.3 0-.9.4-1.2.9-.7.9-45.4 20.3-46.9 20.3-1.3 0-3.6 2.9-3.9 4.9-.3 2.2-2.2 13-2.8 16.1-.5 2.4-2 10.7-2.9 16.3-.6 3.5.1 3.3 5.6-1.9 2.4-2.2 9.5-8.7 15.8-14.4 6.3-5.7 12-10.9 12.6-11.4.6-.6 4.7-4.3 8.9-8.1 7.8-7 14.6-13.1 24-21.8 2.8-2.6 5.3-4.7 5.8-4.7.4 0 .7-.5.7-1 0-1.4-.8-1.2-6.4 1.5zM699.5 448.1c-.4.5-.8 2.4-1.1 4.2-.2 1.8-.6 4.3-.9 5.7-.3 1.4-.7 3.8-1 5.5-.3 1.6-1.6 9.3-3 17-1.3 7.7-2.7 15.6-3 17.5-.3 1.9-.8 4.3-1.1 5.2-.7 2.3.3 2.3 5.2-.1 2.1-1.1 4.2-1.7 4.6-1.4.5.2.8-.1.8-.6 0-.6.6-1.1 1.4-1.1 1.3 0 6.1-1.9 15.3-6.1 2.4-1 4.6-1.9 4.9-1.9.3 0 2-.6 3.7-1.4 8.9-4.1 17.7-7.4 17.7-6.8 0 .4.4.2.8-.4.4-.5 3-1.8 5.7-2.9 2.8-1 7.2-2.9 9.9-4.1 2.8-1.3 5.7-2.4 6.5-2.5 1.3 0-25.3-11.1-32.4-13.5-1.1-.3-2.2-.7-2.5-.8-2-.9-8-3.3-17-6.7-5.8-2.2-11.3-4.4-12.2-4.9-1.1-.6-1.9-.6-2.3.1zM673 453c-27.6 9.8-51.5 18.1-53 18.5-.8.2-2.9.9-4.7 1.7l-3.1 1.3 7.1 3.4c4 1.8 10.4 4.8 14.2 6.6 3.9 1.8 10.2 4.8 14 6.5 3.9 1.8 10.6 5 15 7s8.2 3.7 8.5 3.6c.3 0 1.6.7 3 1.7 2.9 2 6 2.2 6.1.4.2-3.7 1.1-9.6 2.3-16.2.2-1.1.7-4 1.1-6.5.4-2.5.9-5.4 1.1-6.5.7-3.3 2.6-14.7 3.1-18.5.9-5.8.8-7.3-.2-7.5-.5-.2-7.1 1.9-14.5 4.5zM313.1 477.6c-2.5 2.2-5.8 5.1-7.3 6.4-1.6 1.3-2.8 2.7-2.8 3.1 0 .4 69.2.7 153.7.7 92.2 0 153.1-.3 152.2-.9-.8-.5-1-.9-.6-.9s-.1-1-1.3-2.2c-1.1-1.2-3-3.7-4.3-5.5-1.2-1.8-3.3-3.6-4.7-4-1.3-.3-65-.7-141.4-.7l-138.9-.1-4.6 4.1zM617.7 488.2c.5.7 5.2 6.9 10.4 13.8 12.5 16.5 32.1 42.2 33.1 43.5.5.5 2.7 3.4 4.9 6.2 2.2 2.9 4.2 5.3 4.4 5.3.2 0 .3-.8.3-1.8 0-.9.2-3.1.6-4.7.3-1.7.9-4.6 1.2-6.5.9-6.1 2-12.3 3.1-17.5.2-1.1.6-3.6.9-5.6l.5-3.5-21.8-11c-12-6-22.1-11.4-22.5-11.9-.4-.6-.8-.7-.8-.2 0 .4-1.2 0-2.6-1-4.2-2.7-12.8-6.5-11.7-5.1zM749.5 490.5c-4 2-44.7 19.5-46 19.9-1.3.3-10.1 4.3-14.2 6.3-2.6 1.4-3.2 2.4-3.8 6.1-.4 2.4-.8 5.4-1.1 6.5-.6 2.9-1.5 8.3-1.9 11.6-.2 1.4-.4 2.6-.5 2.6-.2 0-.8 3.3-1.4 7.7-.2 1.5-.7 3.2-1.1 3.7-1.1 1.9.9 1.2 3.7-1.2 4-3.5 18.5-16.5 25.1-22.7 3.3-3 7.1-6.5 8.6-7.7 1.5-1.3 4.7-4.2 7.2-6.5 2.5-2.4 8.3-7.7 12.9-11.8 17.9-16 19.4-17.9 12.5-14.5zM476.3 531.7c-.3 3.1-1.9 12.9-3.7 22.3-.3 1.4-.7 4.2-1 6.4-.4 2.1-.8 4.1-1 4.5-.2.3-.7 2.9-1 5.8-.3 2.8-1 7.1-1.5 9.5-1.4 6.3-2.4 13.8-2.5 17.7l-.1 3.4 11 4.4c6.1 2.4 17.3 6.8 25 9.8 7.7 3 17.4 6.7 21.5 8.3 4.1 1.6 7.7 2.8 7.9 2.6.2-.1-1.1-2.6-2.8-5.4-1.7-2.8-3.1-5.5-3.1-6 0-.6-.5-1-1.2-1-.6 0-.9-.3-.6-.6.3-.3-2.3-5.5-5.8-11.5-3.5-6.1-6.4-11.2-6.4-11.4 0-.4-9.5-17.2-11-19.5-.6-.8-1.6-2.6-2.2-4-.7-1.4-2.2-4.1-3.4-6-1.1-1.9-3.6-6.2-5.4-9.5-4.8-8.8-12.1-21.5-12.4-21.5-.1 0-.2.8-.3 1.7zM463.8 533.8c-1.1 1.6-7.9 9.2-20.8 23.2-1.4 1.5-6.1 6.7-10.5 11.5s-9.1 10-10.5 11.5c-3.4 3.7-19.3 21-26 28.4-3 3.3-6.8 7.5-8.5 9.2-5.3 5.7-7.5 8.4-6.7 8.4.4 0 3.9-1.2 7.7-2.6 3.9-1.4 8.1-2.7 9.4-3 1.3-.3 3.3-1 4.3-1.5 1.1-.6 2.7-1.2 3.6-1.4.9-.2 4.7-1.5 8.3-2.9 3.7-1.4 6.9-2.2 7.3-1.9.3.4.6.1.6-.5 0-.7.3-1.1.8-1 .8.3 16.4-4.8 20.8-6.8 1.7-.7 4-1.6 5-1.8 3.6-.8 6.4-1.8 6.6-2.5 0-.3.2-1.7.4-3.1.1-1.4.5-3.6.8-5 .5-2 4.5-25.4 7.2-41.5.2-1.7.7-3.7.9-4.5.2-.8.6-3.1.9-5 .3-1.9.8-4.5 1-5.7.6-3-.9-3.8-2.6-1.5zM434.5 617.1c-34 11.9-49.1 17.1-52.5 18.1-6.9 1.9-7.4 1.5 14.5 11.8 6.1 2.9 13.7 6.5 17 8 3.3 1.5 9.6 4.5 14 6.6 4.4 2.1 8.3 3.7 8.8 3.6.4-.1.7.2.7.8 0 .5.3.9.8.8.4-.1 1.7.3 2.9 1 2.3 1.3 2.5.9 3.8-7.3.8-4.7 2-11.8 3-17 .3-1.7.8-4.6 1.1-6.5.7-4.8 1-6.6 2.3-13.5 2-11.4 2.1-12.5 1.4-12.4-.5 0-8.4 2.7-17.8 6zM462.9 611.5c-.4 1.5-.6 2.4-1.3 6.8-.4 2.7-1 5.9-1.2 7-.3 1.2-.7 3.8-.9 5.7-.3 1.9-.8 4.6-1.1 6-.3 1.4-.8 3.8-1 5.5-.2 1.6-.6 4.1-.9 5.5-.3 1.4-.8 4.1-1.1 6-.2 1.9-.9 5.7-1.5 8.4-.5 2.7-.8 5.1-.6 5.3.3.3 37.4-14.7 46.2-18.7 2-.9 24.3-10 28-11.5 1.7-.6 1.1-1.2-4-3.6-3.3-1.5-6.8-2.8-7.7-2.9-1 0-1.8-.4-1.8-.8 0-.5-.6-.9-1.2-.9-.7 0-5.3-1.6-10.3-3.5-38.2-15.1-39.3-15.5-39.6-14.3zM381 650.9c0 .4.8 1.6 1.8 2.7 1 1 3.3 4.1 5.2 6.9 1.9 2.7 4.3 5.7 5.3 6.6.9.9 1.7 2.1 1.7 2.7 0 .6.3 1.2.8 1.4.4.1 3.4 3.9 6.8 8.3 3.3 4.4 10 13.2 14.9 19.5 4.8 6.3 10.3 13.7 12.3 16.3 1.9 2.6 3.6 4.6 3.8 4.4.4-.3 3.1-14.1 4-20.1.3-1.7.7-4.5 1-6.1.2-1.7.6-4.2.9-5.7.2-1.5.6-3.6 1-4.7.4-1.4-.1-2.4-1.7-3.4-4.8-3.1-57.8-29.4-57.8-28.8zM498.6 660c-17 7.4-24.4 10.6-31.1 13.6-1.6.7-6.1 2.7-10 4.3-8 3.4-7.7 2.9-10 19.1-.3 1.9-1 5.8-1.5 8.6-1.5 7.2-2.2 13.4-1.5 13.4.3 0 2.5-1.8 4.8-3.9 4.2-4 5.9-5.6 15.8-14.5 5.8-5.2 20.7-18.8 27-24.6 2.1-1.9 6.9-6.3 10.6-9.6 13.7-12.3 15.8-14.3 14.8-14.3-.5.1-9 3.6-18.9 7.9z"/></svg>